# xmcd
#
# Track frame offsets: 
#        150
#        22247
#        35557
#        53134
#        68799
#        88594
#        105110
#        120363
#        140197
#        152325
#        168167
#        183326
#        200548
#        217856
#        233401
#        246946
#        259633
#        271355
#
# Disc length: 3771 seconds
#
# Revision: 0
# Processed by: cddbd v1.5.2PL0 Copyright (c) Steve Scherf et al.
# Submitted via: ExactAudioCopy v1.3
#
DISCID=ec0eb912
DTITLE=Kenny Rogers - Kenny Rogers - The Album CD2 
DYEAR=1900
DGENRE=Country
TTITLE0=Have I Told You lately
TTITLE1=As Time Goes By
TTITLE2=Endless Love
TTITLE3=Unforgettable
TTITLE4=I Only Have Eyes For You
TTITLE5=Evergreen
TTITLE6=Misty
TTITLE7=She Believes In Me
TTITLE8=Always
TTITLE9=When I Fall In Love
TTITLE10=Crazy
TTITLE11=When A Woman Loves A Man
TTITLE12=You Decorated My life
TTITLE13=Can't Help Falling In Love
TTITLE14=Ruby, Don't Take Your Love To Town
TTITLE15=Reuben James
TTITLE16=Me And Bobby McGee
TTITLE17=Elvira
EXTD=
EXTT0=
EXTT1=
EXTT2=
EXTT3=
EXTT4=
EXTT5=
EXTT6=
EXTT7=
EXTT8=
EXTT9=
EXTT10=
EXTT11=
EXTT12=
EXTT13=
EXTT14=
EXTT15=
EXTT16=
EXTT17=
PLAYORDER=
